<?xml version="1.0" encoding="UTF-8" standalone="no"?>
<!DOCTYPE svg PUBLIC "-//W3C//DTD SVG 1.1//EN"
 "http://www.w3.org/Graphics/SVG/1.1/DTD/svg11.dtd">
<!-- Generated by graphviz version 2.38.0 (20140413.2041)
 -->
<!-- Title: G Pages: 1 -->
<svg width="855pt" height="2340pt"
 viewBox="0.00 0.00 854.56 2340.00" xmlns="http://www.w3.org/2000/svg" xmlns:xlink="http://www.w3.org/1999/xlink">
<g id="graph0" class="graph" transform="scale(1 1) rotate(0) translate(4 2336)">
<title>G</title>
<polygon fill="white" stroke="none" points="-4,4 -4,-2336 850.556,-2336 850.556,4 -4,4"/>
<g id="clust1" class="cluster"><title>cluster_Global</title>
<path fill="none" stroke="gray" d="M364.818,-476C364.818,-476 826.556,-476 826.556,-476 832.556,-476 838.556,-482 838.556,-488 838.556,-488 838.556,-2312 838.556,-2312 838.556,-2318 832.556,-2324 826.556,-2324 826.556,-2324 364.818,-2324 364.818,-2324 358.818,-2324 352.818,-2318 352.818,-2312 352.818,-2312 352.818,-488 352.818,-488 352.818,-482 358.818,-476 364.818,-476"/>
<text text-anchor="middle" x="595.687" y="-2311.2" font-family="Times,serif" font-size="11.00" fill="gray">Global</text>
</g>
<g id="clust2" class="cluster"><title>cluster_\App</title>
<path fill="none" stroke="gray" d="M372.818,-530C372.818,-530 818.556,-530 818.556,-530 824.556,-530 830.556,-536 830.556,-542 830.556,-542 830.556,-2284 830.556,-2284 830.556,-2290 824.556,-2296 818.556,-2296 818.556,-2296 372.818,-2296 372.818,-2296 366.818,-2296 360.818,-2290 360.818,-2284 360.818,-2284 360.818,-542 360.818,-542 360.818,-536 366.818,-530 372.818,-530"/>
<text text-anchor="middle" x="595.687" y="-2283.2" font-family="Times,serif" font-size="11.00" fill="gray">App</text>
</g>
<g id="clust3" class="cluster"><title>cluster_\App\View</title>
<path fill="none" stroke="gray" d="M400.818,-2196C400.818,-2196 751.056,-2196 751.056,-2196 757.056,-2196 763.056,-2202 763.056,-2208 763.056,-2208 763.056,-2256 763.056,-2256 763.056,-2262 757.056,-2268 751.056,-2268 751.056,-2268 400.818,-2268 400.818,-2268 394.818,-2268 388.818,-2262 388.818,-2256 388.818,-2256 388.818,-2208 388.818,-2208 388.818,-2202 394.818,-2196 400.818,-2196"/>
<text text-anchor="middle" x="575.937" y="-2255.2" font-family="Times,serif" font-size="11.00" fill="gray">View</text>
</g>
<g id="clust4" class="cluster"><title>cluster_\App\Test</title>
<path fill="none" stroke="gray" d="M628.556,-1048C628.556,-1048 810.556,-1048 810.556,-1048 816.556,-1048 822.556,-1054 822.556,-1060 822.556,-1060 822.556,-1800 822.556,-1800 822.556,-1806 816.556,-1812 810.556,-1812 810.556,-1812 628.556,-1812 628.556,-1812 622.556,-1812 616.556,-1806 616.556,-1800 616.556,-1800 616.556,-1060 616.556,-1060 616.556,-1054 622.556,-1048 628.556,-1048"/>
<text text-anchor="middle" x="719.556" y="-1799.2" font-family="Times,serif" font-size="11.00" fill="gray">Test</text>
</g>
<g id="clust5" class="cluster"><title>cluster_\App\Test\TestCase</title>
<path fill="none" stroke="gray" d="M636.556,-1244C636.556,-1244 802.556,-1244 802.556,-1244 808.556,-1244 814.556,-1250 814.556,-1256 814.556,-1256 814.556,-1772 814.556,-1772 814.556,-1778 808.556,-1784 802.556,-1784 802.556,-1784 636.556,-1784 636.556,-1784 630.556,-1784 624.556,-1778 624.556,-1772 624.556,-1772 624.556,-1256 624.556,-1256 624.556,-1250 630.556,-1244 636.556,-1244"/>
<text text-anchor="middle" x="719.556" y="-1771.2" font-family="Times,serif" font-size="11.00" fill="gray">TestCase</text>
</g>
<g id="clust6" class="cluster"><title>cluster_\App\Test\TestCase\Model</title>
<path fill="none" stroke="gray" d="M653.056,-1540C653.056,-1540 786.056,-1540 786.056,-1540 792.056,-1540 798.056,-1546 798.056,-1552 798.056,-1552 798.056,-1744 798.056,-1744 798.056,-1750 792.056,-1756 786.056,-1756 786.056,-1756 653.056,-1756 653.056,-1756 647.056,-1756 641.056,-1750 641.056,-1744 641.056,-1744 641.056,-1552 641.056,-1552 641.056,-1546 647.056,-1540 653.056,-1540"/>
<text text-anchor="middle" x="719.556" y="-1743.2" font-family="Times,serif" font-size="11.00" fill="gray">Model</text>
</g>
<g id="clust7" class="cluster"><title>cluster_\App\Test\TestCase\Model\Table</title>
<path fill="none" stroke="gray" d="M661.056,-1548C661.056,-1548 778.056,-1548 778.056,-1548 784.056,-1548 790.056,-1554 790.056,-1560 790.056,-1560 790.056,-1716 790.056,-1716 790.056,-1722 784.056,-1728 778.056,-1728 778.056,-1728 661.056,-1728 661.056,-1728 655.056,-1728 649.056,-1722 649.056,-1716 649.056,-1716 649.056,-1560 649.056,-1560 649.056,-1554 655.056,-1548 661.056,-1548"/>
<text text-anchor="middle" x="719.556" y="-1715.2" font-family="Times,serif" font-size="11.00" fill="gray">Table</text>
</g>
<g id="clust8" class="cluster"><title>cluster_\App\Test\TestCase\Controller</title>
<path fill="none" stroke="gray" d="M644.556,-1298C644.556,-1298 794.556,-1298 794.556,-1298 800.556,-1298 806.556,-1304 806.556,-1310 806.556,-1310 806.556,-1520 806.556,-1520 806.556,-1526 800.556,-1532 794.556,-1532 794.556,-1532 644.556,-1532 644.556,-1532 638.556,-1532 632.556,-1526 632.556,-1520 632.556,-1520 632.556,-1310 632.556,-1310 632.556,-1304 638.556,-1298 644.556,-1298"/>
<text text-anchor="middle" x="719.556" y="-1519.2" font-family="Times,serif" font-size="11.00" fill="gray">Controller</text>
</g>
<g id="clust9" class="cluster"><title>cluster_\App\Test\Fixture</title>
<path fill="none" stroke="gray" d="M668.056,-1056C668.056,-1056 771.056,-1056 771.056,-1056 777.056,-1056 783.056,-1062 783.056,-1068 783.056,-1068 783.056,-1224 783.056,-1224 783.056,-1230 777.056,-1236 771.056,-1236 771.056,-1236 668.056,-1236 668.056,-1236 662.056,-1236 656.056,-1230 656.056,-1224 656.056,-1224 656.056,-1068 656.056,-1068 656.056,-1062 662.056,-1056 668.056,-1056"/>
<text text-anchor="middle" x="719.556" y="-1223.2" font-family="Times,serif" font-size="11.00" fill="gray">Fixture</text>
</g>
<g id="clust10" class="cluster"><title>cluster_\App\Controller</title>
<path fill="none" stroke="gray" d="M380.818,-1820C380.818,-1820 781.056,-1820 781.056,-1820 787.056,-1820 793.056,-1826 793.056,-1832 793.056,-1832 793.056,-2176 793.056,-2176 793.056,-2182 787.056,-2188 781.056,-2188 781.056,-2188 380.818,-2188 380.818,-2188 374.818,-2188 368.818,-2182 368.818,-2176 368.818,-2176 368.818,-1832 368.818,-1832 368.818,-1826 374.818,-1820 380.818,-1820"/>
<text text-anchor="middle" x="580.937" y="-2175.2" font-family="Times,serif" font-size="11.00" fill="gray">Controller</text>
</g>
<g id="clust11" class="cluster"><title>cluster_\App\Controller\Component</title>
<path fill="none" stroke="gray" d="M668.056,-1828C668.056,-1828 771.056,-1828 771.056,-1828 777.056,-1828 783.056,-1834 783.056,-1840 783.056,-1840 783.056,-1888 783.056,-1888 783.056,-1894 777.056,-1900 771.056,-1900 771.056,-1900 668.056,-1900 668.056,-1900 662.056,-1900 656.056,-1894 656.056,-1888 656.056,-1888 656.056,-1840 656.056,-1840 656.056,-1834 662.056,-1828 668.056,-1828"/>
<text text-anchor="middle" x="719.556" y="-1887.2" font-family="Times,serif" font-size="11.00" fill="gray">Component</text>
</g>
<g id="clust12" class="cluster"><title>cluster_\App\Console</title>
<path fill="none" stroke="gray" d="M685.056,-968C685.056,-968 754.056,-968 754.056,-968 760.056,-968 766.056,-974 766.056,-980 766.056,-980 766.056,-1028 766.056,-1028 766.056,-1034 760.056,-1040 754.056,-1040 754.056,-1040 685.056,-1040 685.056,-1040 679.056,-1040 673.056,-1034 673.056,-1028 673.056,-1028 673.056,-980 673.056,-980 673.056,-974 679.056,-968 685.056,-968"/>
<text text-anchor="middle" x="719.556" y="-1027.2" font-family="Times,serif" font-size="11.00" fill="gray">Console</text>
</g>
<g id="clust13" class="cluster"><title>cluster_\App\Model</title>
<path fill="none" stroke="gray" d="M673.556,-664C673.556,-664 765.556,-664 765.556,-664 771.556,-664 777.556,-670 777.556,-676 777.556,-676 777.556,-948 777.556,-948 777.556,-954 771.556,-960 765.556,-960 765.556,-960 673.556,-960 673.556,-960 667.556,-960 661.556,-954 661.556,-948 661.556,-948 661.556,-676 661.556,-676 661.556,-670 667.556,-664 673.556,-664"/>
<text text-anchor="middle" x="719.556" y="-947.2" font-family="Times,serif" font-size="11.00" fill="gray">Model</text>
</g>
<g id="clust14" class="cluster"><title>cluster_\App\Model\Entity</title>
<path fill="none" stroke="gray" d="M696.556,-806C696.556,-806 742.556,-806 742.556,-806 748.556,-806 754.556,-812 754.556,-818 754.556,-818 754.556,-920 754.556,-920 754.556,-926 748.556,-932 742.556,-932 742.556,-932 696.556,-932 696.556,-932 690.556,-932 684.556,-926 684.556,-920 684.556,-920 684.556,-818 684.556,-818 684.556,-812 690.556,-806 696.556,-806"/>
<text text-anchor="middle" x="719.556" y="-919.2" font-family="Times,serif" font-size="11.00" fill="gray">Entity</text>
</g>
<g id="clust15" class="cluster"><title>cluster_\App\Model\Table</title>
<path fill="none" stroke="gray" d="M681.556,-672C681.556,-672 757.556,-672 757.556,-672 763.556,-672 769.556,-678 769.556,-684 769.556,-684 769.556,-786 769.556,-786 769.556,-792 763.556,-798 757.556,-798 757.556,-798 681.556,-798 681.556,-798 675.556,-798 669.556,-792 669.556,-786 669.556,-786 669.556,-684 669.556,-684 669.556,-678 675.556,-672 681.556,-672"/>
<text text-anchor="middle" x="719.556" y="-785.2" font-family="Times,serif" font-size="11.00" fill="gray">Table</text>
</g>
<g id="clust16" class="cluster"><title>cluster_\App\Shell</title>
<path fill="none" stroke="gray" d="M674.556,-584C674.556,-584 764.556,-584 764.556,-584 770.556,-584 776.556,-590 776.556,-596 776.556,-596 776.556,-644 776.556,-644 776.556,-650 770.556,-656 764.556,-656 764.556,-656 674.556,-656 674.556,-656 668.556,-656 662.556,-650 662.556,-644 662.556,-644 662.556,-596 662.556,-596 662.556,-590 668.556,-584 674.556,-584"/>
<text text-anchor="middle" x="719.556" y="-643.2" font-family="Times,serif" font-size="11.00" fill="gray">Shell</text>
</g>
<!-- \\App\\View\\AppView -->
<g id="node1" class="node"><title>\\App\\View\\AppView</title>
<polygon fill="none" stroke="black" points="460.818,-2240 396.818,-2240 396.818,-2204 460.818,-2204 460.818,-2240"/>
<text text-anchor="middle" x="428.818" y="-2219.2" font-family="Courier,monospace" font-size="11.00">AppView</text>
</g>
<!-- \\Cake\\View\\View -->
<g id="node29" class="node"><title>\\Cake\\View\\View</title>
<ellipse fill="none" stroke="black" cx="108.54" cy="-2222" rx="74.187" ry="18"/>
<text text-anchor="middle" x="108.54" y="-2218.3" font-family="Times,serif" font-size="14.00" fill="gray">\Cake\View\View</text>
</g>
<!-- \\App\\View\\AppView&#45;&gt;\\Cake\\View\\View -->
<g id="edge1" class="edge"><title>\\App\\View\\AppView&#45;&gt;\\Cake\\View\\View</title>
<path fill="none" stroke="black" d="M396.721,-2222C349.929,-2222 259.781,-2222 192.914,-2222"/>
<polygon fill="none" stroke="black" points="192.809,-2218.5 182.809,-2222 192.809,-2225.5 192.809,-2218.5"/>
</g>
<!-- \\App\\View\\AjaxView -->
<g id="node2" class="node"><title>\\App\\View\\AjaxView</title>
<polygon fill="none" stroke="black" points="755.056,-2240 684.056,-2240 684.056,-2204 755.056,-2204 755.056,-2240"/>
<text text-anchor="middle" x="719.556" y="-2219.2" font-family="Courier,monospace" font-size="11.00">AjaxView</text>
</g>
<!-- \\App\\View\\AjaxView&#45;&gt;\\App\\View\\AppView -->
<g id="edge18" class="edge"><title>\\App\\View\\AjaxView&#45;&gt;\\App\\View\\AppView</title>
<path fill="none" stroke="black" d="M684.014,-2222C630.607,-2222 528.193,-2222 471.01,-2222"/>
<polygon fill="none" stroke="black" points="470.881,-2218.5 460.881,-2222 470.881,-2225.5 470.881,-2218.5"/>
</g>
<!-- \\App\\Test\\TestCase\\Model\\Table\\LogsTableTest -->
<g id="node3" class="node"><title>\\App\\Test\\TestCase\\Model\\Table\\LogsTableTest</title>
<polygon fill="none" stroke="black" points="771.556,-1700 667.556,-1700 667.556,-1664 771.556,-1664 771.556,-1700"/>
<text text-anchor="middle" x="719.556" y="-1679.2" font-family="Courier,monospace" font-size="11.00">LogsTableTest</text>
</g>
<!-- \\Cake\\TestSuite\\TestCase -->
<g id="node30" class="node"><title>\\Cake\\TestSuite\\TestCase</title>
<ellipse fill="none" stroke="black" cx="428.818" cy="-396" rx="101.282" ry="18"/>
<text text-anchor="middle" x="428.818" y="-392.3" font-family="Times,serif" font-size="14.00" fill="gray">\Cake\TestSuite\TestCase</text>
</g>
<!-- \\App\\Test\\TestCase\\Model\\Table\\LogsTableTest&#45;&gt;\\Cake\\TestSuite\\TestCase -->
<g id="edge2" class="edge"><title>\\App\\Test\\TestCase\\Model\\Table\\LogsTableTest&#45;&gt;\\Cake\\TestSuite\\TestCase</title>
<path fill="none" stroke="black" d="M667.308,-1680.71C648.456,-1677.46 628.754,-1670.22 616.556,-1655 530.898,-1548.09 657.724,-527 568.556,-423 560.508,-413.613 550.252,-406.875 538.971,-402.108"/>
<polygon fill="none" stroke="black" points="539.872,-398.71 529.279,-398.551 537.461,-405.282 539.872,-398.71"/>
</g>
<!-- \\App\\Test\\TestCase\\Model\\Table\\ClientsTableTest -->
<g id="node4" class="node"><title>\\App\\Test\\TestCase\\Model\\Table\\ClientsTableTest</title>
<polygon fill="none" stroke="black" points="782.056,-1646 657.056,-1646 657.056,-1610 782.056,-1610 782.056,-1646"/>
<text text-anchor="middle" x="719.556" y="-1625.2" font-family="Courier,monospace" font-size="11.00">ClientsTableTest</text>
</g>
<!-- \\App\\Test\\TestCase\\Model\\Table\\ClientsTableTest&#45;&gt;\\Cake\\TestSuite\\TestCase -->
<g id="edge15" class="edge"><title>\\App\\Test\\TestCase\\Model\\Table\\ClientsTableTest&#45;&gt;\\Cake\\TestSuite\\TestCase</title>
<path fill="none" stroke="black" d="M656.933,-1624.48C641.508,-1620.53 626.532,-1613.43 616.556,-1601 534.555,-1498.84 653.91,-522.373 568.556,-423 560.499,-413.62 550.239,-406.887 538.954,-402.121"/>
<polygon fill="none" stroke="black" points="539.854,-398.724 529.261,-398.567 537.444,-405.296 539.854,-398.724"/>
</g>
<!-- \\App\\Test\\TestCase\\Model\\Table\\UsersTableTest -->
<g id="node5" class="node"><title>\\App\\Test\\TestCase\\Model\\Table\\UsersTableTest</title>
<polygon fill="none" stroke="black" points="775.056,-1592 664.056,-1592 664.056,-1556 775.056,-1556 775.056,-1592"/>
<text text-anchor="middle" x="719.556" y="-1571.2" font-family="Courier,monospace" font-size="11.00">UsersTableTest</text>
</g>
<!-- \\App\\Test\\TestCase\\Model\\Table\\UsersTableTest&#45;&gt;\\Cake\\TestSuite\\TestCase -->
<g id="edge26" class="edge"><title>\\App\\Test\\TestCase\\Model\\Table\\UsersTableTest&#45;&gt;\\Cake\\TestSuite\\TestCase</title>
<path fill="none" stroke="black" d="M664.002,-1566.06C646.024,-1560.61 627.78,-1551.44 616.556,-1536 543.767,-1435.88 649.32,-516.803 568.556,-423 560.488,-413.63 550.221,-406.902 538.933,-402.14"/>
<polygon fill="none" stroke="black" points="539.83,-398.741 529.237,-398.587 537.422,-405.314 539.83,-398.741"/>
</g>
<!-- \\App\\Test\\TestCase\\Controller\\UsersControllerTest -->
<g id="node6" class="node"><title>\\App\\Test\\TestCase\\Controller\\UsersControllerTest</title>
<polygon fill="none" stroke="black" points="792.056,-1504 647.056,-1504 647.056,-1468 792.056,-1468 792.056,-1504"/>
<text text-anchor="middle" x="719.556" y="-1483.2" font-family="Courier,monospace" font-size="11.00">UsersControllerTest</text>
</g>
<!-- \\Cake\\TestSuite\\IntegrationTestCase -->
<g id="node31" class="node"><title>\\Cake\\TestSuite\\IntegrationTestCase</title>
<ellipse fill="none" stroke="black" cx="428.818" cy="-342" rx="139.976" ry="18"/>
<text text-anchor="middle" x="428.818" y="-338.3" font-family="Times,serif" font-size="14.00" fill="gray">\Cake\TestSuite\IntegrationTestCase</text>
</g>
<!-- \\App\\Test\\TestCase\\Controller\\UsersControllerTest&#45;&gt;\\Cake\\TestSuite\\IntegrationTestCase -->
<g id="edge11" class="edge"><title>\\App\\Test\\TestCase\\Controller\\UsersControllerTest&#45;&gt;\\Cake\\TestSuite\\IntegrationTestCase</title>
<path fill="none" stroke="black" d="M646.964,-1479.4C635.228,-1475.15 624.369,-1468.7 616.556,-1459 540.515,-1364.59 647.696,-460.832 568.556,-369 564.701,-364.527 560.346,-360.657 555.617,-357.315"/>
<polygon fill="none" stroke="black" points="557.083,-354.108 546.731,-351.854 553.418,-360.072 557.083,-354.108"/>
</g>
<!-- \\App\\Test\\TestCase\\Controller\\PagesControllerTest -->
<g id="node7" class="node"><title>\\App\\Test\\TestCase\\Controller\\PagesControllerTest</title>
<polygon fill="none" stroke="black" points="792.056,-1450 647.056,-1450 647.056,-1414 792.056,-1414 792.056,-1450"/>
<text text-anchor="middle" x="719.556" y="-1429.2" font-family="Courier,monospace" font-size="11.00">PagesControllerTest</text>
</g>
<!-- \\App\\Test\\TestCase\\Controller\\PagesControllerTest&#45;&gt;\\Cake\\TestSuite\\IntegrationTestCase -->
<g id="edge21" class="edge"><title>\\App\\Test\\TestCase\\Controller\\PagesControllerTest&#45;&gt;\\Cake\\TestSuite\\IntegrationTestCase</title>
<path fill="none" stroke="black" d="M646.982,-1425.38C635.245,-1421.14 624.38,-1414.69 616.556,-1405 544.172,-1315.34 643.883,-456.206 568.556,-369 564.696,-364.532 560.336,-360.665 555.605,-357.326"/>
<polygon fill="none" stroke="black" points="557.067,-354.117 546.713,-351.87 553.406,-360.083 557.067,-354.117"/>
</g>
<!-- \\App\\Test\\TestCase\\Controller\\LogsControllerTest -->
<g id="node8" class="node"><title>\\App\\Test\\TestCase\\Controller\\LogsControllerTest</title>
<polygon fill="none" stroke="black" points="788.556,-1396 650.556,-1396 650.556,-1360 788.556,-1360 788.556,-1396"/>
<text text-anchor="middle" x="719.556" y="-1375.2" font-family="Courier,monospace" font-size="11.00">LogsControllerTest</text>
</g>
<!-- \\App\\Test\\TestCase\\Controller\\LogsControllerTest&#45;&gt;\\Cake\\TestSuite\\IntegrationTestCase -->
<g id="edge23" class="edge"><title>\\App\\Test\\TestCase\\Controller\\LogsControllerTest&#45;&gt;\\Cake\\TestSuite\\IntegrationTestCase</title>
<path fill="none" stroke="black" d="M650.39,-1372.53C637.369,-1368.33 625.142,-1361.61 616.556,-1351 547.829,-1266.09 640.07,-451.579 568.556,-369 564.594,-364.425 560.108,-360.481 555.235,-357.089"/>
<polygon fill="none" stroke="black" points="557.055,-354.099 546.693,-351.887 553.414,-360.078 557.055,-354.099"/>
</g>
<!-- \\App\\Test\\TestCase\\Controller\\ClientsControllerTest -->
<g id="node9" class="node"><title>\\App\\Test\\TestCase\\Controller\\ClientsControllerTest</title>
<polygon fill="none" stroke="black" points="798.556,-1342 640.556,-1342 640.556,-1306 798.556,-1306 798.556,-1342"/>
<text text-anchor="middle" x="719.556" y="-1321.2" font-family="Courier,monospace" font-size="11.00">ClientsControllerTest</text>
</g>
<!-- \\App\\Test\\TestCase\\Controller\\ClientsControllerTest&#45;&gt;\\Cake\\TestSuite\\IntegrationTestCase -->
<g id="edge27" class="edge"><title>\\App\\Test\\TestCase\\Controller\\ClientsControllerTest&#45;&gt;\\Cake\\TestSuite\\IntegrationTestCase</title>
<path fill="none" stroke="black" d="M640.346,-1318.54C631.249,-1314.84 622.953,-1309.52 616.556,-1302 482.038,-1143.87 704.666,-525.764 568.556,-369 564.588,-364.43 560.097,-360.49 555.22,-357.101"/>
<polygon fill="none" stroke="black" points="557.036,-354.109 546.674,-351.904 553.399,-360.09 557.036,-354.109"/>
</g>
<!-- \\App\\Test\\TestCase\\ApplicationTest -->
<g id="node10" class="node"><title>\\App\\Test\\TestCase\\ApplicationTest</title>
<polygon fill="none" stroke="black" points="778.556,-1288 660.556,-1288 660.556,-1252 778.556,-1252 778.556,-1288"/>
<text text-anchor="middle" x="719.556" y="-1267.2" font-family="Courier,monospace" font-size="11.00">ApplicationTest</text>
</g>
<!-- \\App\\Test\\TestCase\\ApplicationTest&#45;&gt;\\Cake\\TestSuite\\IntegrationTestCase -->
<g id="edge3" class="edge"><title>\\App\\Test\\TestCase\\ApplicationTest&#45;&gt;\\Cake\\TestSuite\\IntegrationTestCase</title>
<path fill="none" stroke="black" d="M660.389,-1265.44C643.767,-1261.18 627.272,-1253.53 616.556,-1240 496.194,-1088.04 695.913,-515.143 568.556,-369 564.528,-364.378 559.965,-360.401 555.01,-356.987"/>
<polygon fill="none" stroke="black" points="556.697,-353.918 546.324,-351.759 553.087,-359.915 556.697,-353.918"/>
</g>
<!-- \\App\\Test\\Fixture\\UsersFixture -->
<g id="node11" class="node"><title>\\App\\Test\\Fixture\\UsersFixture</title>
<polygon fill="none" stroke="black" points="768.556,-1208 670.556,-1208 670.556,-1172 768.556,-1172 768.556,-1208"/>
<text text-anchor="middle" x="719.556" y="-1187.2" font-family="Courier,monospace" font-size="11.00">UsersFixture</text>
</g>
<!-- \\Cake\\TestSuite\\Fixture\\TestFixture -->
<g id="node38" class="node"><title>\\Cake\\TestSuite\\Fixture\\TestFixture</title>
<ellipse fill="none" stroke="black" cx="428.818" cy="-288" rx="137.576" ry="18"/>
<text text-anchor="middle" x="428.818" y="-284.3" font-family="Times,serif" font-size="14.00" fill="gray">\Cake\TestSuite\Fixture\TestFixture</text>
</g>
<!-- \\App\\Test\\Fixture\\UsersFixture&#45;&gt;\\Cake\\TestSuite\\Fixture\\TestFixture -->
<g id="edge20" class="edge"><title>\\App\\Test\\Fixture\\UsersFixture&#45;&gt;\\Cake\\TestSuite\\Fixture\\TestFixture</title>
<path fill="none" stroke="black" d="M670.353,-1189.07C650.669,-1186.05 629.525,-1178.9 616.556,-1163 497.246,-1016.75 692.666,-457.203 568.556,-315 564.473,-310.322 559.842,-306.305 554.81,-302.864"/>
<polygon fill="none" stroke="black" points="556.372,-299.72 545.991,-297.601 552.785,-305.731 556.372,-299.72"/>
</g>
<!-- \\App\\Test\\Fixture\\ClientsFixture -->
<g id="node12" class="node"><title>\\App\\Test\\Fixture\\ClientsFixture</title>
<polygon fill="none" stroke="black" points="775.056,-1154 664.056,-1154 664.056,-1118 775.056,-1118 775.056,-1154"/>
<text text-anchor="middle" x="719.556" y="-1133.2" font-family="Courier,monospace" font-size="11.00">ClientsFixture</text>
</g>
<!-- \\App\\Test\\Fixture\\ClientsFixture&#45;&gt;\\Cake\\TestSuite\\Fixture\\TestFixture -->
<g id="edge22" class="edge"><title>\\App\\Test\\Fixture\\ClientsFixture&#45;&gt;\\Cake\\TestSuite\\Fixture\\TestFixture</title>
<path fill="none" stroke="black" d="M664.018,-1133.93C646.265,-1130.39 628.162,-1123.17 616.556,-1109 504.556,-972.243 685.044,-447.954 568.556,-315 564.464,-310.33 559.825,-306.319 554.788,-302.883"/>
<polygon fill="none" stroke="black" points="556.344,-299.736 545.961,-297.628 552.763,-305.751 556.344,-299.736"/>
</g>
<!-- \\App\\Test\\Fixture\\LogsFixture -->
<g id="node13" class="node"><title>\\App\\Test\\Fixture\\LogsFixture</title>
<polygon fill="none" stroke="black" points="765.056,-1100 674.056,-1100 674.056,-1064 765.056,-1064 765.056,-1100"/>
<text text-anchor="middle" x="719.556" y="-1079.2" font-family="Courier,monospace" font-size="11.00">LogsFixture</text>
</g>
<!-- \\App\\Test\\Fixture\\LogsFixture&#45;&gt;\\Cake\\TestSuite\\Fixture\\TestFixture -->
<g id="edge25" class="edge"><title>\\App\\Test\\Fixture\\LogsFixture&#45;&gt;\\Cake\\TestSuite\\Fixture\\TestFixture</title>
<path fill="none" stroke="black" d="M673.985,-1076.56C653.163,-1071.6 630.041,-1062.11 616.556,-1044 519.606,-913.775 675.872,-436.824 568.556,-315 564.451,-310.341 559.803,-306.339 554.758,-302.91"/>
<polygon fill="none" stroke="black" points="556.305,-299.758 545.919,-297.665 552.733,-305.778 556.305,-299.758"/>
</g>
<!-- \\App\\Controller\\Component\\EmailComponent -->
<g id="node14" class="node"><title>\\App\\Controller\\Component\\EmailComponent</title>
<polygon fill="none" stroke="black" points="775.056,-1872 664.056,-1872 664.056,-1836 775.056,-1836 775.056,-1872"/>
<text text-anchor="middle" x="719.556" y="-1851.2" font-family="Courier,monospace" font-size="11.00">EmailComponent</text>
</g>
<!-- \\Cake\\Controller\\Component -->
<g id="node39" class="node"><title>\\Cake\\Controller\\Component</title>
<ellipse fill="none" stroke="black" cx="428.818" cy="-450" rx="113.98" ry="18"/>
<text text-anchor="middle" x="428.818" y="-446.3" font-family="Times,serif" font-size="14.00" fill="gray">\Cake\Controller\Component</text>
</g>
<!-- \\App\\Controller\\Component\\EmailComponent&#45;&gt;\\Cake\\Controller\\Component -->
<g id="edge24" class="edge"><title>\\App\\Controller\\Component\\EmailComponent&#45;&gt;\\Cake\\Controller\\Component</title>
<path fill="none" stroke="black" d="M697.396,-1835.67C673.5,-1813.65 635.489,-1774.34 616.556,-1732 510.76,-1495.41 444.113,-645.869 431.865,-478.681"/>
<polygon fill="none" stroke="black" points="435.323,-477.972 431.107,-468.252 428.341,-478.48 435.323,-477.972"/>
</g>
<!-- \\App\\Controller\\LogsController -->
<g id="node15" class="node"><title>\\App\\Controller\\LogsController</title>
<polygon fill="none" stroke="black" points="775.056,-2052 664.056,-2052 664.056,-2016 775.056,-2016 775.056,-2052"/>
<text text-anchor="middle" x="719.556" y="-2031.2" font-family="Courier,monospace" font-size="11.00">LogsController</text>
</g>
<!-- \\App\\Controller\\AppController -->
<g id="node20" class="node"><title>\\App\\Controller\\AppController</title>
<polygon fill="none" stroke="black" points="480.818,-2052 376.818,-2052 376.818,-2016 480.818,-2016 480.818,-2052"/>
<text text-anchor="middle" x="428.818" y="-2031.2" font-family="Courier,monospace" font-size="11.00">AppController</text>
</g>
<!-- \\App\\Controller\\LogsController&#45;&gt;\\App\\Controller\\AppController -->
<g id="edge4" class="edge"><title>\\App\\Controller\\LogsController&#45;&gt;\\App\\Controller\\AppController</title>
<path fill="none" stroke="black" d="M663.907,-2034C614.656,-2034 542.324,-2034 491.121,-2034"/>
<polygon fill="none" stroke="black" points="490.853,-2030.5 480.853,-2034 490.853,-2037.5 490.853,-2030.5"/>
</g>
<!-- \\App\\Controller\\PagesController -->
<g id="node16" class="node"><title>\\App\\Controller\\PagesController</title>
<polygon fill="none" stroke="black" points="778.556,-1998 660.556,-1998 660.556,-1962 778.556,-1962 778.556,-1998"/>
<text text-anchor="middle" x="719.556" y="-1977.2" font-family="Courier,monospace" font-size="11.00">PagesController</text>
</g>
<!-- \\App\\Controller\\PagesController&#45;&gt;\\App\\Controller\\AppController -->
<g id="edge5" class="edge"><title>\\App\\Controller\\PagesController&#45;&gt;\\App\\Controller\\AppController</title>
<path fill="none" stroke="black" d="M660.473,-1990.86C611.326,-2000.05 541.106,-2013.19 491.078,-2022.54"/>
<polygon fill="none" stroke="black" points="490.225,-2019.14 481.039,-2024.42 491.512,-2026.02 490.225,-2019.14"/>
</g>
<!-- \\App\\Controller\\ClientsController -->
<g id="node17" class="node"><title>\\App\\Controller\\ClientsController</title>
<polygon fill="none" stroke="black" points="785.056,-1944 654.056,-1944 654.056,-1908 785.056,-1908 785.056,-1944"/>
<text text-anchor="middle" x="719.556" y="-1923.2" font-family="Courier,monospace" font-size="11.00">ClientsController</text>
</g>
<!-- \\App\\Controller\\ClientsController&#45;&gt;\\App\\Controller\\AppController -->
<g id="edge6" class="edge"><title>\\App\\Controller\\ClientsController&#45;&gt;\\App\\Controller\\AppController</title>
<path fill="none" stroke="black" d="M653.906,-1941.54C641.411,-1944.98 628.497,-1948.86 616.556,-1953 567.621,-1969.98 513.504,-1994.07 476.181,-2011.56"/>
<polygon fill="none" stroke="black" points="474.621,-2008.43 467.068,-2015.86 477.606,-2014.76 474.621,-2008.43"/>
</g>
<!-- \\App\\Controller\\ErrorController -->
<g id="node18" class="node"><title>\\App\\Controller\\ErrorController</title>
<polygon fill="none" stroke="black" points="778.556,-2160 660.556,-2160 660.556,-2124 778.556,-2124 778.556,-2160"/>
<text text-anchor="middle" x="719.556" y="-2139.2" font-family="Courier,monospace" font-size="11.00">ErrorController</text>
</g>
<!-- \\App\\Controller\\ErrorController&#45;&gt;\\App\\Controller\\AppController -->
<g id="edge10" class="edge"><title>\\App\\Controller\\ErrorController&#45;&gt;\\App\\Controller\\AppController</title>
<path fill="none" stroke="black" d="M660.38,-2128.22C645.932,-2124.35 630.574,-2119.86 616.556,-2115 567.621,-2098.02 513.504,-2073.93 476.181,-2056.44"/>
<polygon fill="none" stroke="black" points="477.606,-2053.24 467.068,-2052.14 474.621,-2059.57 477.606,-2053.24"/>
</g>
<!-- \\App\\Controller\\UsersController -->
<g id="node19" class="node"><title>\\App\\Controller\\UsersController</title>
<polygon fill="none" stroke="black" points="778.556,-2106 660.556,-2106 660.556,-2070 778.556,-2070 778.556,-2106"/>
<text text-anchor="middle" x="719.556" y="-2085.2" font-family="Courier,monospace" font-size="11.00">UsersController</text>
</g>
<!-- \\App\\Controller\\UsersController&#45;&gt;\\App\\Controller\\AppController -->
<g id="edge14" class="edge"><title>\\App\\Controller\\UsersController&#45;&gt;\\App\\Controller\\AppController</title>
<path fill="none" stroke="black" d="M660.473,-2077.14C611.326,-2067.95 541.106,-2054.81 491.078,-2045.46"/>
<polygon fill="none" stroke="black" points="491.512,-2041.98 481.039,-2043.58 490.225,-2048.86 491.512,-2041.98"/>
</g>
<!-- \\Cake\\Controller\\Controller -->
<g id="node36" class="node"><title>\\Cake\\Controller\\Controller</title>
<ellipse fill="none" stroke="black" cx="108.54" cy="-2034" rx="108.581" ry="18"/>
<text text-anchor="middle" x="108.54" y="-2030.3" font-family="Times,serif" font-size="14.00" fill="gray">\Cake\Controller\Controller</text>
</g>
<!-- \\App\\Controller\\AppController&#45;&gt;\\Cake\\Controller\\Controller -->
<g id="edge16" class="edge"><title>\\App\\Controller\\AppController&#45;&gt;\\Cake\\Controller\\Controller</title>
<path fill="none" stroke="black" d="M376.681,-2034C336.485,-2034 278.882,-2034 227.45,-2034"/>
<polygon fill="none" stroke="black" points="227.253,-2030.5 217.253,-2034 227.253,-2037.5 227.253,-2030.5"/>
</g>
<!-- \\App\\Console\\Installer -->
<g id="node21" class="node"><title>\\App\\Console\\Installer</title>
<polygon fill="none" stroke="black" points="758.056,-1012 681.056,-1012 681.056,-976 758.056,-976 758.056,-1012"/>
<text text-anchor="middle" x="719.556" y="-991.2" font-family="Courier,monospace" font-size="11.00">Installer</text>
</g>
<!-- \\App\\Model\\Entity\\User -->
<g id="node22" class="node"><title>\\App\\Model\\Entity\\User</title>
<polygon fill="none" stroke="black" points="746.556,-904 692.556,-904 692.556,-868 746.556,-868 746.556,-904"/>
<text text-anchor="middle" x="719.556" y="-883.2" font-family="Courier,monospace" font-size="11.00">User</text>
</g>
<!-- \\Cake\\ORM\\Entity -->
<g id="node32" class="node"><title>\\Cake\\ORM\\Entity</title>
<ellipse fill="none" stroke="black" cx="428.818" cy="-234" rx="77.9862" ry="18"/>
<text text-anchor="middle" x="428.818" y="-230.3" font-family="Times,serif" font-size="14.00" fill="gray">\Cake\ORM\Entity</text>
</g>
<!-- \\App\\Model\\Entity\\User&#45;&gt;\\Cake\\ORM\\Entity -->
<g id="edge7" class="edge"><title>\\App\\Model\\Entity\\User&#45;&gt;\\Cake\\ORM\\Entity</title>
<path fill="none" stroke="black" d="M692.411,-886.897C668.747,-886.158 634.879,-880.929 616.556,-859 531.074,-756.697 657.395,-360.402 568.556,-261 555.197,-246.053 536.235,-237.896 516.607,-233.718"/>
<polygon fill="none" stroke="black" points="517.086,-230.248 506.625,-231.927 515.85,-237.138 517.086,-230.248"/>
</g>
<!-- \\App\\Model\\Entity\\Log -->
<g id="node23" class="node"><title>\\App\\Model\\Entity\\Log</title>
<polygon fill="none" stroke="black" points="746.556,-850 692.556,-850 692.556,-814 746.556,-814 746.556,-850"/>
<text text-anchor="middle" x="719.556" y="-829.2" font-family="Courier,monospace" font-size="11.00">Log</text>
</g>
<!-- \\App\\Model\\Entity\\Log&#45;&gt;\\Cake\\ORM\\Entity -->
<g id="edge8" class="edge"><title>\\App\\Model\\Entity\\Log&#45;&gt;\\Cake\\ORM\\Entity</title>
<path fill="none" stroke="black" d="M692.379,-832.038C668.693,-830.539 634.81,-824.27 616.556,-802 540.045,-708.656 649.361,-350.653 568.556,-261 555.134,-246.109 536.15,-237.972 516.519,-233.796"/>
<polygon fill="none" stroke="black" points="516.999,-230.326 506.538,-232.005 515.763,-237.216 516.999,-230.326"/>
</g>
<!-- \\App\\Model\\Table\\LogsTable -->
<g id="node24" class="node"><title>\\App\\Model\\Table\\LogsTable</title>
<polygon fill="none" stroke="black" points="758.056,-770 681.056,-770 681.056,-734 758.056,-734 758.056,-770"/>
<text text-anchor="middle" x="719.556" y="-749.2" font-family="Courier,monospace" font-size="11.00">LogsTable</text>
</g>
<!-- \\Cake\\ORM\\Table -->
<g id="node35" class="node"><title>\\Cake\\ORM\\Table</title>
<ellipse fill="none" stroke="black" cx="428.818" cy="-180" rx="76.8869" ry="18"/>
<text text-anchor="middle" x="428.818" y="-176.3" font-family="Times,serif" font-size="14.00" fill="gray">\Cake\ORM\Table</text>
</g>
<!-- \\App\\Model\\Table\\LogsTable&#45;&gt;\\Cake\\ORM\\Table -->
<g id="edge13" class="edge"><title>\\App\\Model\\Table\\LogsTable&#45;&gt;\\Cake\\ORM\\Table</title>
<path fill="none" stroke="black" d="M680.939,-752.125C658.805,-750.061 632.174,-743.459 616.556,-725 541.886,-636.746 646.121,-292.721 568.556,-207 554.761,-191.754 535.134,-183.596 514.97,-179.519"/>
<polygon fill="none" stroke="black" points="515.497,-176.059 505.051,-177.832 514.323,-182.96 515.497,-176.059"/>
</g>
<!-- \\App\\Model\\Table\\UsersTable -->
<g id="node25" class="node"><title>\\App\\Model\\Table\\UsersTable</title>
<polygon fill="none" stroke="black" points="761.556,-716 677.556,-716 677.556,-680 761.556,-680 761.556,-716"/>
<text text-anchor="middle" x="719.556" y="-695.2" font-family="Courier,monospace" font-size="11.00">UsersTable</text>
</g>
<!-- \\App\\Model\\Table\\UsersTable&#45;&gt;\\Cake\\ORM\\Table -->
<g id="edge17" class="edge"><title>\\App\\Model\\Table\\UsersTable&#45;&gt;\\Cake\\ORM\\Table</title>
<path fill="none" stroke="black" d="M677.396,-693.051C655.892,-688.236 631.094,-678.737 616.556,-660 492.445,-500.042 705.383,-356.227 568.556,-207 554.732,-191.923 535.201,-183.802 515.144,-179.706"/>
<polygon fill="none" stroke="black" points="515.728,-176.255 505.279,-178.006 514.539,-183.153 515.728,-176.255"/>
</g>
<!-- \\App\\Shell\\ConsoleShell -->
<g id="node26" class="node"><title>\\App\\Shell\\ConsoleShell</title>
<polygon fill="none" stroke="black" points="768.556,-628 670.556,-628 670.556,-592 768.556,-592 768.556,-628"/>
<text text-anchor="middle" x="719.556" y="-607.2" font-family="Courier,monospace" font-size="11.00">ConsoleShell</text>
</g>
<!-- \\Cake\\Console\\Shell -->
<g id="node33" class="node"><title>\\Cake\\Console\\Shell</title>
<ellipse fill="none" stroke="black" cx="428.818" cy="-126" rx="83.3857" ry="18"/>
<text text-anchor="middle" x="428.818" y="-122.3" font-family="Times,serif" font-size="14.00" fill="gray">\Cake\Console\Shell</text>
</g>
<!-- \\App\\Shell\\ConsoleShell&#45;&gt;\\Cake\\Console\\Shell -->
<g id="edge9" class="edge"><title>\\App\\Shell\\ConsoleShell&#45;&gt;\\Cake\\Console\\Shell</title>
<path fill="none" stroke="black" d="M670.421,-611.19C650.993,-609.047 630.027,-602.929 616.556,-588 486.247,-443.596 700.318,-296.079 568.556,-153 556.284,-139.674 539.551,-131.788 521.952,-127.314"/>
<polygon fill="none" stroke="black" points="522.624,-123.878 512.108,-125.166 521.132,-130.717 522.624,-123.878"/>
</g>
<!-- \\App\\Application -->
<g id="node27" class="node"><title>\\App\\Application</title>
<polygon fill="none" stroke="black" points="765.056,-574 674.056,-574 674.056,-538 765.056,-538 765.056,-574"/>
<text text-anchor="middle" x="719.556" y="-553.2" font-family="Courier,monospace" font-size="11.00">Application</text>
</g>
<!-- \\Cake\\Http\\BaseApplication -->
<g id="node37" class="node"><title>\\Cake\\Http\\BaseApplication</title>
<ellipse fill="none" stroke="black" cx="428.818" cy="-72" rx="110.48" ry="18"/>
<text text-anchor="middle" x="428.818" y="-68.3" font-family="Times,serif" font-size="14.00" fill="gray">\Cake\Http\BaseApplication</text>
</g>
<!-- \\App\\Application&#45;&gt;\\Cake\\Http\\BaseApplication -->
<g id="edge19" class="edge"><title>\\App\\Application&#45;&gt;\\Cake\\Http\\BaseApplication</title>
<path fill="none" stroke="black" d="M673.816,-557.526C653.474,-555.734 630.816,-549.803 616.556,-534 486.247,-389.596 700.318,-242.079 568.556,-99 561.637,-91.4865 553.3,-85.7026 544.189,-81.2844"/>
<polygon fill="none" stroke="black" points="545.416,-78.0029 534.844,-77.3079 542.675,-84.444 545.416,-78.0029"/>
</g>
<!-- \\Initial -->
<g id="node28" class="node"><title>\\Initial</title>
<polygon fill="none" stroke="black" points="751.556,-520 687.556,-520 687.556,-484 751.556,-484 751.556,-520"/>
<text text-anchor="middle" x="719.556" y="-499.2" font-family="Courier,monospace" font-size="11.00">Initial</text>
</g>
<!-- \\Migrations\\AbstractMigration -->
<g id="node34" class="node"><title>\\Migrations\\AbstractMigration</title>
<ellipse fill="none" stroke="black" cx="428.818" cy="-18" rx="120.479" ry="18"/>
<text text-anchor="middle" x="428.818" y="-14.3" font-family="Times,serif" font-size="14.00" fill="gray">\Migrations\AbstractMigration</text>
</g>
<!-- \\Initial&#45;&gt;\\Migrations\\AbstractMigration -->
<g id="edge12" class="edge"><title>\\Initial&#45;&gt;\\Migrations\\AbstractMigration</title>
<path fill="none" stroke="black" d="M718.655,-483.702C717.97,-414.418 705.689,-165.987 568.556,-45 561.664,-38.9198 553.82,-34.0408 545.448,-30.1416"/>
<polygon fill="none" stroke="black" points="546.755,-26.8946 536.178,-26.2847 544.066,-33.3576 546.755,-26.8946"/>
</g>
</g>
</svg>
